# xmcd
#
# Track frame offsets: 
#        150
#        12135
#        30809
#        42734
#        57722
#        70162
#        86208
#        100235
#        112320
#        127776
#
# Disc length: 1900 seconds
#
# Revision: 0
# Processed by: cddbd v1.5.2PL0 Copyright (c) Steve Scherf et al.
# Submitted via: ExactAudioCopy v0.99pb5
#
DISCID=86076a0a
DTITLE=nieve and cook - away with words
DYEAR=2007
DGENRE=Hip-Hop
TTITLE0=Anime Superhero
TTITLE1=Chronic Intoxication
TTITLE2=Fantasy
TTITLE3=Play On
TTITLE4=So Smooth
TTITLE5=Forever Changin
TTITLE6=Blackbird
TTITLE7=Midnight Baby
TTITLE8=Diamonds in the Rough
TTITLE9=Another Day comes
EXTD=
EXTT0=
EXTT1=
EXTT2=
EXTT3=
EXTT4=
EXTT5=
EXTT6=
EXTT7=
EXTT8=
EXTT9=
PLAYORDER=
